<?xml version="1.0" encoding="UTF-8" standalone="no"?>
<!-- Created with Inkscape (http://www.inkscape.org/) -->

<svg
   width="1080"
   height="300"
   viewBox="0 0 285.74999 79.375"
   version="1.1"
   id="svg5"
   inkscape:version="1.2.2 (b0a84865, 2022-12-01)"
   sodipodi:docname="tabbar.svg"
   xmlns:inkscape="http://www.inkscape.org/namespaces/inkscape"
   xmlns:sodipodi="http://sodipodi.sourceforge.net/DTD/sodipodi-0.dtd"
   xmlns="http://www.w3.org/2000/svg"
   xmlns:svg="http://www.w3.org/2000/svg">
  <sodipodi:namedview
     id="namedview7"
     pagecolor="#ffffff"
     bordercolor="#000000"
     borderopacity="0.25"
     inkscape:showpageshadow="2"
     inkscape:pageopacity="0.0"
     inkscape:pagecheckerboard="0"
     inkscape:deskcolor="#d1d1d1"
     inkscape:document-units="px"
     showgrid="false"
     inkscape:zoom="0.457453"
     inkscape:cx="609.89872"
     inkscape:cy="-16.395127"
     inkscape:window-width="1390"
     inkscape:window-height="1205"
     inkscape:window-x="2240"
     inkscape:window-y="0"
     inkscape:window-maximized="0"
     inkscape:current-layer="g1854" />
  <defs
     id="defs2" />
  <g
     inkscape:label="Layer 1"
     inkscape:groupmode="layer"
     id="layer1">
    <g
       id="g1854">
      <path
         id="path1514"
         style="fill:#000000;stroke:#9d9d9d;stroke-width:0.52916666;stroke-opacity:1;stroke-dasharray:none;fill-opacity:0;opacity:0.6875"
         d="M 34.395833 13.360941 A 26.326698 26.3267 0 0 0 10.194726 29.368749 L 4.2333333 29.368749 L 4.2333333 50.272383 L 10.310998 50.272383 A 26.326698 26.3267 0 0 0 34.395833 66.014057 A 26.326698 26.3267 0 0 0 58.480667 50.272383 L 81.748497 50.272383 A 26.3267 26.3267 0 0 0 105.83333 66.014057 A 26.3267 26.3267 0 0 0 129.91817 50.272383 L 155.83183 50.272383 A 26.3267 26.3267 0 0 0 179.91666 66.014057 A 26.3267 26.3267 0 0 0 204.0015 50.272383 L 227.26933 50.272383 A 26.3267 26.3267 0 0 0 251.35416 66.014057 A 26.3267 26.3267 0 0 0 275.439 50.272383 L 281.7828 50.272383 L 281.7828 29.368749 L 275.57232 29.368749 A 26.3267 26.3267 0 0 0 251.35416 13.360941 A 26.3267 26.3267 0 0 0 227.15306 29.368749 L 204.13482 29.368749 A 26.3267 26.3267 0 0 0 179.91666 13.360941 A 26.3267 26.3267 0 0 0 155.71556 29.368749 L 130.05149 29.368749 A 26.3267 26.3267 0 0 0 105.83333 13.360941 A 26.3267 26.3267 0 0 0 81.632225 29.368749 L 58.613992 29.368749 A 26.326698 26.3267 0 0 0 34.395833 13.360941 z " />
    </g>
  </g>
</svg>
