<?xml version="1.0" encoding="UTF-8" standalone="no"?>
<svg
   xmlns:dc="http://purl.org/dc/elements/1.1/"
   xmlns:cc="http://creativecommons.org/ns#"
   xmlns:rdf="http://www.w3.org/1999/02/22-rdf-syntax-ns#"
   xmlns:svg="http://www.w3.org/2000/svg"
   xmlns="http://www.w3.org/2000/svg"
   xmlns:sodipodi="http://sodipodi.sourceforge.net/DTD/sodipodi-0.dtd"
   xmlns:inkscape="http://www.inkscape.org/namespaces/inkscape"
   width="600pt"
   height="200pt"
   viewBox="0 0 211.66667 70.555555"
   version="1.1"
   id="svg8"
   inkscape:version="1.0.2-2 (e86c870879, 2021-01-15)"
   sodipodi:docname="tabbar.svg">
  <defs
     id="defs2" />
  <sodipodi:namedview
     id="base"
     pagecolor="#ffffff"
     bordercolor="#666666"
     borderopacity="1.0"
     inkscape:pageopacity="0.0"
     inkscape:pageshadow="2"
     inkscape:zoom="0.63216164"
     inkscape:cx="339.56746"
     inkscape:cy="351.15778"
     inkscape:document-units="mm"
     inkscape:current-layer="layer1"
     inkscape:document-rotation="0"
     showgrid="false"
     units="pt"
     inkscape:window-width="1267"
     inkscape:window-height="1040"
     inkscape:window-x="234"
     inkscape:window-y="0"
     inkscape:window-maximized="0" />
  <metadata
     id="metadata5">
    <rdf:RDF>
      <cc:Work
         rdf:about="">
        <dc:format>image/svg+xml</dc:format>
        <dc:type
           rdf:resource="http://purl.org/dc/dcmitype/StillImage" />
        <dc:title></dc:title>
      </cc:Work>
    </rdf:RDF>
  </metadata>
  <g
     inkscape:label="Layer 1"
     inkscape:groupmode="layer"
     id="layer1">
    <path
       style="fill:none;stroke:#000000;stroke-width:0.264583px;stroke-linecap:butt;stroke-linejoin:miter;stroke-opacity:1"
       d="M 7.1151368,36.41276 C 25.530785,7.9522118 45.620582,23.01956 45.620582,23.01956 L 66.965993,7.9522118 c 0,0 17.160036,2.5112242 19.671263,8.3707492 2.511224,5.859524 4.185375,13.3932 9.626362,15.067348 5.440982,1.674151 28.460542,-6.696599 31.808842,-7.115136 3.3483,-0.418538 6.6966,-3.3483 15.48589,-7.533674 8.78929,-4.185375 17.57857,-5.440988 26.36786,-4.185375 8.78929,1.255612 23.85663,6.696599 26.36786,10.881974 2.51122,4.185375 7.95221,8.789287 7.95221,14.64881 0,5.859526 2.92976,10.463437 -0.41853,12.974664 -3.3483,2.511224 -6.27807,6.278059 -18.41565,3.766836 -12.13759,-2.511224 -23.85664,-7.952211 -28.87909,-2.929763 -5.02245,5.02245 4.60391,4.603914 -13.81173,6.696601 -18.41565,2.092685 -38.08692,-5.02245 -42.27229,-5.440989 -4.185372,-0.418537 -17.160034,-0.837073 -21.763948,0.837075 -4.603911,1.674151 -11.719049,5.02245 -19.252723,5.859526 -7.533674,0.837073 -10.044898,2.511224 -27.204934,1.674148 C 15.067349,60.687931 10.881974,60.269394 6.6965993,54.828408 2.5112248,49.387421 7.1151368,36.41276 7.1151368,36.41276 Z"
       id="path833" />
  </g>
</svg>
